<?xml version="1.0" standalone="no"?>
<!DOCTYPE svg PUBLIC "-//W3C//DTD SVG 20010904//EN"
 "http://www.w3.org/TR/2001/REC-SVG-20010904/DTD/svg10.dtd">
<svg version="1.0" xmlns="http://www.w3.org/2000/svg"
 width="300.000000pt" height="286.000000pt" viewBox="0 0 300.000000 286.000000"
 preserveAspectRatio="xMidYMid meet">
<metadata>
Created by potrace 1.10, written by Peter Selinger 2001-2011
</metadata>
<g transform="translate(0.000000,286.000000) scale(0.10000,-0.100000)"
fill="#000000" stroke="none">
<path d="M472 2735 c-12 -25 -41 -7 598 -370 212 -121 451 -256 953 -541 119
-68 315 -180 435 -248 119 -68 255 -144 301 -169 l84 -45 -139 -67 c-77 -37
-168 -81 -204 -97 -36 -17 -180 -85 -320 -153 -140 -67 -394 -189 -565 -270
-170 -81 -422 -201 -560 -267 -137 -66 -313 -150 -390 -186 -298 -142 -285
-135 -272 -158 13 -23 -53 -53 777 346 124 59 374 179 555 265 182 87 431 206
555 265 124 59 315 151 425 203 140 67 201 101 203 114 2 13 -13 27 -50 47
-56 31 -308 174 -948 538 -217 124 -615 350 -885 503 -269 152 -502 285 -516
295 -26 18 -27 18 -37 -5z"/>
<path d="M1056 1682 c-3 -5 1 -9 9 -9 8 0 12 4 9 9 -3 4 -7 8 -9 8 -2 0 -6 -4
-9 -8z"/>
</g>
</svg>
